<svg role="img" viewBox="0 0 24 24" xmlns="http://www.w3.org/2000/svg">
  <title>Instagram</title>
  <path d="M12 0C8.74 0 8.333.015 7.053.072 5.775.132 4.96.284 4.223.554 3.488.824 2.879 1.254 2.292 1.842.665 3.466 0 5.59 0 12c0 6.416.665 8.534 2.292 10.158.587.587 1.196 1.196 1.842 1.842.73.73 1.545 1.442 2.766 2.023 1.22.58 2.59.92 4.07.92 1.34 0 1.77-.015 3.05-.072 1.277-.06 2.09-.212 2.828-.482.73-.27 1.34-.7 1.927-1.288 1.625-1.626 2.29-3.75 2.29-10.158 0-6.416-.665-8.534-2.292-10.158C21.121 2.879 20.512 2.27 19.886 1.842 19.15.824 18.335.554 17.6.284 16.322.132 15.507.072 14.23.015 12.95.015 12.56 0 12 0zm0 2.163c3.228 0 3.638.012 4.896.069 1.17.056 1.838.196 2.222.348.403.155.679.36.986.666.307.306.512.583.667.986.15.38.292 1.052.347 2.22.057 1.258.069 1.668.069 4.896s-.012 3.638-.069 4.896c-.056 1.17-.196 1.838-.348 2.222-.155.403-.36.679-.666.986-.306.307-.583.512-.986.667-.38.15-1.052.292-2.22.347-1.258.057-1.668.069-4.896.069s-3.638-.012-4.896-.069c-1.17-.056-1.838-.196-2.222-.348-.403-.155-.679-.36-.986-.666-.307-.306-.512-.583-.667-.986-.15-.38-.292-1.052-.347-2.22-.057-1.258-.069-1.668-.069-4.896s.012-3.638.069-4.896c.056-1.17.196-1.838.348-2.222.155-.403.36-.679.666-.986.306-.307.583-.512.986-.667.38-.15 1.052-.292 2.22-.347C8.333 2.175 8.74 2.163 12 2.163zm0 3.652a6.185 6.185 0 100 12.37 6.185 6.185 0 000-12.37zm0 2.062a4.123 4.123 0 110 8.246 4.123 4.123 0 010-8.246zm5.83-2.07a1.488 1.488 0 100 2.977 1.488 1.488 0 000-2.977z" fill="#000000"/>
</svg>